<svg xmlns="http://www.w3.org/2000/svg" viewBox="0 0 100 100" preserveAspectRatio="xMidYMid meet">
  <rect width="100" height="100" fill="transparent"/>
  <!-- Document stack -->
  <rect x="20" y="25" width="40" height="55" fill="none" stroke="#60a5fa" stroke-width="1.5" rx="2"/>
  <line x1="25" y1="35" x2="55" y2="35" stroke="#60a5fa" stroke-width="1"/>
  <line x1="25" y1="42" x2="55" y2="42" stroke="#60a5fa" stroke-width="1"/>
  <line x1="25" y1="49" x2="45" y2="49" stroke="#60a5fa" stroke-width="1"/>
  <line x1="25" y1="56" x2="55" y2="56" stroke="#60a5fa" stroke-width="1"/>
  <rect x="30" y="20" width="40" height="55" fill="none" stroke="#a78bfa" stroke-width="1.5" rx="2"/>
  <line x1="35" y1="30" x2="65" y2="30" stroke="#a78bfa" stroke-width="1"/>
  <line x1="35" y1="37" x2="65" y2="37" stroke="#a78bfa" stroke-width="1"/>
  <line x1="35" y1="44" x2="55" y2="44" stroke="#a78bfa" stroke-width="1"/>
  <rect x="40" y="15" width="40" height="55" fill="#111827" stroke="#34d399" stroke-width="1.5" rx="2"/>
  <line x1="45" y1="25" x2="75" y2="25" stroke="#34d399" stroke-width="1"/>
  <line x1="45" y1="32" x2="75" y2="32" stroke="#34d399" stroke-width="1"/>
  <line x1="45" y1="39" x2="65" y2="39" stroke="#34d399" stroke-width="1"/>
  <!-- Center -->
  <circle cx="60" cy="55" r="3" fill="#34d399"/>
</svg>