<svg xmlns="http://www.w3.org/2000/svg" viewBox="0 0 100 100" preserveAspectRatio="xMidYMid meet">
  <rect width="100" height="100" fill="transparent"/>
  <!-- Verification crystal -->
  <polygon points="50,15 75,30 80,55 70,80 50,90 30,80 20,55 25,30" fill="none" stroke="#34d399" stroke-width="2"/>
  <polygon points="50,15 75,30 50,50 25,30" fill="#34d399" opacity="0.2"/>
  <polygon points="75,30 80,55 50,50" fill="#34d399" opacity="0.15"/>
  <polygon points="80,55 70,80 50,50" fill="#34d399" opacity="0.1"/>
  <polygon points="70,80 50,90 50,50" fill="#34d399" opacity="0.05"/>
  <circle cx="50" cy="50" r="6" fill="#fff"/>
  <circle cx="50" cy="50" r="3" fill="#34d399"/>
  <!-- Beam -->
  <line x1="50" y1="50" x2="80" y2="20" stroke="#34d399" stroke-width="1" opacity="0.6"/>
  <line x1="50" y1="50" x2="20" y2="20" stroke="#34d399" stroke-width="1" opacity="0.6"/>
  <line x1="50" y1="50" x2="85" y2="55" stroke="#34d399" stroke-width="1" opacity="0.6"/>
</svg>