<svg xmlns="http://www.w3.org/2000/svg" width="800" height="600" viewBox="0 0 800 600" font-family="ui-monospace, 'SF Mono', Menlo, Consolas, monospace">
  <defs>
    <radialGradient id="sunGlow" cx="50%" cy="50%" r="50%">
      <stop offset="0%" stop-color="#f59e0b" stop-opacity="0.5"/>
      <stop offset="100%" stop-color="#f59e0b" stop-opacity="0"/>
    </radialGradient>
    <radialGradient id="mayaFaceGlow" cx="50%" cy="50%" r="50%">
      <stop offset="0%" stop-color="#3b82f6" stop-opacity="0.3"/>
      <stop offset="100%" stop-color="#3b82f6" stop-opacity="0"/>
    </radialGradient>
  </defs>

  <rect fill="#0d1117" width="800" height="600"/>

  <rect x="40" y="50" width="280" height="200" fill="#111827" stroke="#1e293b" stroke-width="2" rx="4"/>
  <ellipse cx="240" cy="120" rx="100" ry="80" fill="url(#sunGlow)"/>
  <circle cx="240" cy="120" r="32" fill="#f59e0b" opacity="0.7"/>
  <g fill="#1e293b">
    <rect x="60"  y="170" width="20" height="80"/>
    <rect x="85"  y="150" width="24" height="100"/>
    <rect x="115" y="170" width="18" height="80"/>
    <rect x="138" y="140" width="22" height="110"/>
    <rect x="165" y="160" width="20" height="90"/>
    <rect x="190" y="155" width="18" height="95"/>
    <rect x="213" y="170" width="20" height="80"/>
    <rect x="238" y="160" width="22" height="90"/>
    <rect x="265" y="175" width="18" height="75"/>
  </g>
  <g fill="#475569" opacity="0.6">
    <rect x="66" y="160" width="2" height="20"/>
    <rect x="91" y="135" width="2" height="20"/>
    <rect x="142" y="125" width="2" height="20"/>
  </g>

  <line x1="0" y1="490" x2="800" y2="490" stroke="#1e293b" stroke-width="1"/>
  <line x1="0" y1="495" x2="800" y2="495" stroke="#0d1117" stroke-width="2"/>

  <rect x="450" y="320" width="230" height="150" fill="#111827" stroke="#1e293b" stroke-width="2" rx="4"/>
  <rect x="460" y="330" width="210" height="130" fill="#0d1117"/>
  <text x="468" y="350" font-size="10" fill="#3b82f6">const onConfirm = () =&gt; {</text>
  <text x="468" y="365" font-size="10" fill="#3b82f6">  setState('confirming');</text>
  <text x="468" y="380" font-size="10" fill="#3b82f6">  api.confirm().then(() =&gt; {</text>
  <text x="468" y="395" font-size="10" fill="#3b82f6">    setState('closing');</text>
  <text x="468" y="410" font-size="10" fill="#3b82f6">  });</text>
  <text x="468" y="425" font-size="10" fill="#3b82f6">};</text>
  <text x="468" y="445" font-size="10" fill="#94a3b8">// tests pass. ship it.</text>
  <ellipse cx="565" cy="285" rx="40" ry="20" fill="url(#mayaFaceGlow)"/>
  <rect x="440" y="468" width="250" height="8" fill="#1e293b" rx="2"/>

  <g data-maya="present">
    <ellipse cx="385" cy="293" rx="40" ry="22" fill="url(#mayaFaceGlow)"/>
    <path d="M 360 220 Q 360 200 385 198 Q 410 200 410 220" fill="#1e293b"/>
    <path d="M 360 218 Q 355 250 365 285 L 370 295 Q 372 290 370 285 Q 380 295 390 285 Q 395 290 393 285 Q 405 295 408 285 L 412 280 Q 412 252 410 218 Z" fill="#475569"/>
    <circle cx="385" cy="268" r="22" fill="#cbd5e1"/>
    <path d="M 360 218 Q 350 270 365 320 L 410 320 Q 425 268 410 218 Z" fill="#475569" opacity="0"/>
    <ellipse cx="378" cy="265" rx="2.5" ry="3" fill="#1e293b"/>
    <ellipse cx="392" cy="265" rx="2.5" ry="3" fill="#1e293b"/>
    <path d="M 378 276 Q 385 281 392 276" stroke="#1e293b" stroke-width="1.5" fill="none"/>
    <path d="M 373 259 L 383 261" stroke="#1e293b" stroke-width="1.5"/>
    <path d="M 387 261 L 397 259" stroke="#1e293b" stroke-width="1.5"/>
    <rect x="365" y="290" width="40" height="100" fill="#94a3b8" rx="8"/>
    <path d="M 360 295 Q 340 320 350 350" stroke="#94a3b8" stroke-width="14" fill="none" stroke-linecap="round"/>
    <ellipse cx="350" cy="355" rx="6" ry="9" fill="#cbd5e1"/>
  </g>

  <rect x="430" y="370" width="22" height="32" fill="#1e293b" stroke="#3b82f6" stroke-width="1" rx="2"/>
  <ellipse cx="441" cy="370" rx="11" ry="4" fill="#3b82f6" opacity="0.6"/>
  <path d="M 444 372 Q 449 380 446 386" stroke="#3b82f6" stroke-width="1.5" fill="none" opacity="0.5"/>

  <text x="400" y="40" font-size="24" fill="#3b82f6" text-anchor="middle" font-weight="bold">Looks Right</text>

  <text x="400" y="540" font-size="14" fill="#cbd5e1" text-anchor="middle">Friday afternoon. 4:47 PM. Maya needs to ship a payment confirmation dialog.</text>
  <text x="400" y="565" font-size="14" fill="#f59e0b" text-anchor="middle" font-style="italic">"This should work. The tests pass. The code looks right."</text>

  <g transform="translate(720 555)">
    <circle r="14" fill="#1e293b" stroke="#475569"/>
    <text y="-2" font-size="10" fill="#f59e0b" text-anchor="middle">4:47</text>
    <text y="9" font-size="6" fill="#94a3b8" text-anchor="middle">PM</text>
  </g>
</svg>