<svg xmlns="http://www.w3.org/2000/svg" width="600" height="400" viewBox="0 0 600 400" font-family="ui-monospace, 'SF Mono', Menlo, Consolas, monospace">
  <defs>
    <radialGradient id="serverGlow" cx="50%" cy="50%" r="50%">
      <stop offset="0%" stop-color="#22c55e" stop-opacity="0.4"/>
      <stop offset="100%" stop-color="#22c55e" stop-opacity="0"/>
    </radialGradient>
  </defs>

  <rect fill="#0d1117" width="600" height="400"/>

  <rect x="50" y="180" width="160" height="100" fill="#111827" stroke="#1e293b" stroke-width="2" rx="4"/>
  <rect x="60" y="190" width="140" height="80" fill="#0d1117"/>
  <text x="68" y="206" font-size="9" fill="#3b82f6">const x = async</text>
  <text x="68" y="218" font-size="9" fill="#3b82f6">  () =&gt; { deploy };</text>
  <text x="68" y="234" font-size="9" fill="#22c55e">// status: ok</text>
  <rect x="40" y="278" width="180" height="6" fill="#1e293b" rx="2"/>

  <rect x="380" y="120" width="100" height="180" fill="#1e293b" stroke="#475569" stroke-width="2" rx="4"/>
  <ellipse cx="430" cy="210" rx="100" ry="120" fill="url(#serverGlow)"/>
  <g fill="#22c55e">
    <circle cx="395" cy="135" r="2"/>
    <circle cx="395" cy="145" r="2"/>
    <circle cx="395" cy="155" r="2"/>
    <circle cx="395" cy="165" r="2"/>
    <circle cx="395" cy="175" r="2"/>
  </g>
  <g fill="#22c55e">
    <circle cx="465" cy="135" r="2"/>
    <circle cx="465" cy="145" r="2"/>
    <circle cx="465" cy="155" r="2"/>
    <circle cx="465" cy="165" r="2"/>
    <circle cx="465" cy="175" r="2"/>
  </g>
  <rect x="395" y="200" width="70" height="14" fill="#0d1117" stroke="#22c55e" stroke-width="1"/>
  <text x="430" y="211" font-size="8" fill="#22c55e" text-anchor="middle">PROD</text>
  <rect x="395" y="220" width="70" height="14" fill="#0d1117" stroke="#22c55e" stroke-width="1"/>
  <text x="430" y="231" font-size="8" fill="#22c55e" text-anchor="middle">v2.1.0</text>
  <rect x="395" y="240" width="70" height="14" fill="#0d1117" stroke="#22c55e" stroke-width="1"/>
  <text x="430" y="251" font-size="8" fill="#22c55e" text-anchor="middle">HEALTHY</text>

  <path d="M 215 230 Q 280 200 380 220" stroke="#3b82f6" stroke-width="2" fill="none" stroke-dasharray="4 3" opacity="0.7"/>
  <path d="M 215 235 Q 280 220 380 230" stroke="#3b82f6" stroke-width="2" fill="none" stroke-dasharray="4 3" opacity="0.5"/>
  <path d="M 215 240 Q 280 240 380 240" stroke="#22c55e" stroke-width="2" fill="none" stroke-dasharray="4 3" opacity="0.7"/>

  <g data-maya="present">
    <path d="M 145 230 Q 130 220 130 200 Q 130 175 165 173 Q 200 175 200 200 Q 200 220 185 230" fill="#1e293b"/>
    <ellipse cx="160" cy="265" rx="30" ry="18" fill="#22c55e" opacity="0.15"/>
    <circle cx="165" cy="235" r="20" fill="#cbd5e1"/>
    <ellipse cx="158" cy="232" rx="2.5" ry="3" fill="#1e293b"/>
    <ellipse cx="172" cy="232" rx="2.5" ry="3" fill="#1e293b"/>
    <path d="M 158 240 Q 165 250 172 240 Q 168 247 165 248 Q 162 247 158 240 Z" fill="#1e293b"/>
    <path d="M 153 226 L 163 228" stroke="#1e293b" stroke-width="1.5"/>
    <path d="M 167 228 L 177 226" stroke="#1e293b" stroke-width="1.5"/>
    <path d="M 145 253 Q 140 280 145 320 L 195 320 Q 200 280 195 253 Z" fill="#475569"/>
    <rect x="142" y="260" width="46" height="40" fill="#475569"/>
    <path d="M 185 270 Q 200 240 220 220" stroke="#94a3b8" stroke-width="14" fill="none" stroke-linecap="round"/>
    <ellipse cx="222" cy="218" rx="8" ry="10" fill="#cbd5e1"/>
    <ellipse cx="222" cy="214" rx="3" ry="2" fill="#3b82f6" opacity="0.5"/>
    <path d="M 145 270 Q 125 290 130 320" stroke="#94a3b8" stroke-width="14" fill="none" stroke-linecap="round"/>
  </g>

  <g fill="#22c55e">
    <circle cx="270" cy="80" r="2"/>
    <circle cx="320" cy="60" r="1.5"/>
    <circle cx="350" cy="90" r="2"/>
    <circle cx="240" cy="100" r="1.5"/>
    <circle cx="380" cy="70" r="2"/>
  </g>
  <g fill="#f59e0b">
    <circle cx="290" cy="50" r="1.5"/>
    <circle cx="360" cy="50" r="1.5"/>
  </g>

  <text x="300" y="30" font-size="22" fill="#3b82f6" text-anchor="middle" font-weight="bold">Ship It</text>
  <text x="300" y="370" font-size="13" fill="#cbd5e1" text-anchor="middle">5:00 PM. Deploy complete. Maya goes home for the weekend.</text>
  <text x="300" y="390" font-size="13" fill="#f59e0b" text-anchor="middle" font-style="italic">"Pushed to prod. See you Monday!"</text>

  <g transform="translate(540 50)">
    <circle r="22" fill="#1e293b" stroke="#475569" stroke-width="2"/>
    <line x1="0" y1="0" x2="0" y2="-12" stroke="#f59e0b" stroke-width="2"/>
    <line x1="0" y1="0" x2="9" y2="6" stroke="#f59e0b" stroke-width="2"/>
    <text y="35" font-size="9" fill="#94a3b8" text-anchor="middle">5:00 PM</text>
  </g>
</svg>