<svg xmlns="http://www.w3.org/2000/svg" width="1000" height="800" viewBox="0 0 1000 800" font-family="ui-monospace, 'SF Mono', Menlo, Consolas, monospace">
  <defs>
    <radialGradient id="alarmGlow" cx="50%" cy="50%" r="60%">
      <stop offset="0%" stop-color="#ef4444" stop-opacity="0.3"/>
      <stop offset="100%" stop-color="#ef4444" stop-opacity="0"/>
    </radialGradient>
  </defs>

  <rect fill="#0d1117" width="1000" height="800"/>

  <ellipse cx="500" cy="400" rx="800" ry="300" fill="url(#alarmGlow)"/>

  <g font-size="12" fill="#ef4444">
    <rect x="40" y="40" width="280" height="50" fill="#1a0808" stroke="#ef4444" stroke-width="1" rx="4"/>
    <text x="60" y="62" font-weight="bold">⚠ CHARGED TWICE!</text>
    <text x="60" y="78" font-size="10" fill="#fca5a5">user_2841 — 9 min ago</text>

    <rect x="40" y="100" width="280" height="50" fill="#1a0808" stroke="#ef4444" stroke-width="1" rx="4"/>
    <text x="60" y="122" font-weight="bold">⚠ WHERE'S MY REFUND?</text>
    <text x="60" y="138" font-size="10" fill="#fca5a5">user_2839 — 12 min ago</text>

    <rect x="40" y="160" width="280" height="50" fill="#1a0808" stroke="#ef4444" stroke-width="1" rx="4"/>
    <text x="60" y="182" font-weight="bold">⚠ I'M SWITCHING BANKS</text>
    <text x="60" y="198" font-size="10" fill="#fca5a5">user_2837 — 18 min ago</text>

    <rect x="350" y="40" width="280" height="50" fill="#1a0808" stroke="#ef4444" stroke-width="1" rx="4"/>
    <text x="370" y="62" font-weight="bold">⚠ DOUBLE PAYMENT!!!</text>
    <text x="370" y="78" font-size="10" fill="#fca5a5">user_2834 — 22 min ago</text>

    <rect x="350" y="100" width="280" height="50" fill="#1a0808" stroke="#ef4444" stroke-width="1" rx="4"/>
    <text x="370" y="122" font-weight="bold">⚠ FRAUDULENT CHARGE</text>
    <text x="370" y="138" font-size="10" fill="#fca5a5">user_2831 — 27 min ago</text>

    <rect x="350" y="160" width="280" height="50" fill="#1a0808" stroke="#ef4444" stroke-width="1" rx="4"/>
    <text x="370" y="182" font-weight="bold">⚠ DISPUTE FILED</text>
    <text x="370" y="198" font-size="10" fill="#fca5a5">user_2828 — 31 min ago</text>

    <rect x="660" y="40" width="280" height="50" fill="#1a0808" stroke="#ef4444" stroke-width="1" rx="4"/>
    <text x="680" y="62" font-weight="bold">⚠ SUPPORT REQUESTS: 847</text>
    <text x="680" y="78" font-size="10" fill="#fca5a5">last 48 hours</text>

    <rect x="660" y="100" width="280" height="50" fill="#1a0808" stroke="#ef4444" stroke-width="1" rx="4"/>
    <text x="680" y="122" font-weight="bold">⚠ CHURN RATE: +340%</text>
    <text x="680" y="138" font-size="10" fill="#fca5a5">last 48 hours</text>

    <rect x="660" y="160" width="280" height="50" fill="#1a0808" stroke="#ef4444" stroke-width="1" rx="4"/>
    <text x="680" y="182" font-weight="bold">⚠ CEO CALLED</text>
    <text x="680" y="198" font-size="10" fill="#fca5a5">minutes ago</text>
  </g>

  <rect x="60" y="240" width="880" height="180" fill="#111827" stroke="#ef4444" stroke-width="2" rx="6"/>
  <text x="80" y="265" font-size="13" fill="#94a3b8">PAYMENT FLOW</text>
  <line x1="120" y1="320" x2="380" y2="320" stroke="#22c55e" stroke-width="2"/>
  <text x="170" y="305" font-size="11" fill="#cbd5e1">click event</text>
  <text x="170" y="340" font-size="11" fill="#cbd5e1">user clicks Confirm</text>
  <line x1="380" y1="320" x2="640" y2="320" stroke="#22c55e" stroke-width="2"/>
  <text x="430" y="305" font-size="11" fill="#cbd5e1">async fetch</text>
  <text x="430" y="340" font-size="11" fill="#cbd5e1">api.confirm()</text>
  <line x1="640" y1="320" x2="900" y2="320" stroke="#22c55e" stroke-width="2"/>
  <text x="730" y="305" font-size="11" fill="#cbd5e1">settle</text>
  <text x="730" y="340" font-size="11" fill="#cbd5e1">state = closing</text>

  <circle cx="200" cy="320" r="14" fill="#22c55e" opacity="0.4"/>
  <circle cx="510" cy="320" r="14" fill="#22c55e" opacity="0.4"/>
  <circle cx="820" cy="320" r="14" fill="#22c55e" opacity="0.4"/>

  <g transform="translate(380 320)">
    <path d="M -16 12 L 0 -20 L 16 12 Z" fill="#ef4444" stroke="#7f1d1d" stroke-width="1"/>
    <circle cx="-6" cy="-4" r="2" fill="#0d1117"/>
    <circle cx="6" cy="-4" r="2" fill="#0d1117"/>
    <path d="M -4 6 L 4 6" stroke="#0d1117" stroke-width="2"/>
    <path d="M -3 6 L 0 14 L 3 6" fill="#0d1117"/>
  </g>
  <text x="380" y="380" font-size="11" fill="#ef4444" text-anchor="middle">BUG: race condition</text>

  <text x="500" y="222" font-size="24" fill="#ef4444" text-anchor="middle" font-weight="bold">847 users. Double-charged. Over the weekend.</text>

  <g transform="translate(700 600)" data-maya="present">
    <rect x="-200" y="-90" width="180" height="120" fill="#0d1117" stroke="#1e293b" stroke-width="1" rx="4" transform="rotate(-8 -110 -30)"/>
    <text x="-110" y="-65" font-size="8" fill="#ef4444" text-anchor="middle" transform="rotate(-8 -110 -30)">ERROR 500</text>
    <text x="-110" y="-50" font-size="8" fill="#ef4444" text-anchor="middle" transform="rotate(-8 -110 -30)">payment</text>
    <rect x="-220" y="-50" width="180" height="120" fill="#0d1117" stroke="#1e293b" stroke-width="1" rx="4" transform="rotate(-3 -130 10)"/>
    <text x="-130" y="-25" font-size="8" fill="#94a3b8" text-anchor="middle" transform="rotate(-3 -130 10)">logs</text>
    <rect x="-100" y="-30" width="180" height="120" fill="#0d1117" stroke="#1e293b" stroke-width="1" rx="4"/>

    <path d="M -32 -110 Q -50 -140 -10 -150 Q 30 -148 32 -120 Q 50 -100 30 -78 Q 25 -82 22 -78 Q 18 -82 14 -78 Q 10 -82 6 -78 Q 2 -82 -2 -78 Q -6 -82 -10 -78 Q -22 -80 -32 -110 Z" fill="#1e1b1b"/>
    <path d="M -8 -78 L -8 -50" stroke="#475569" stroke-width="2"/>
    <path d="M 8 -78 L 8 -50" stroke="#475569" stroke-width="2"/>
    <path d="M -32 -100 Q -50 -50 -28 -20 L 28 -20 Q 50 -50 32 -100 Z" fill="#475569"/>
    <path d="M -32 -100 Q -45 -70 -42 -30" stroke="#475569" stroke-width="3" fill="none"/>
    <path d="M 32 -100 Q 45 -70 42 -30" stroke="#475569" stroke-width="3" fill="none"/>
    <rect x="-30" y="-20" width="60" height="20" fill="#475569"/>

    <circle cx="0" cy="-50" r="32" fill="#cbd5e1"/>
    <path d="M -28 -55 Q -28 -85 0 -88 Q 28 -85 28 -55 L 28 -50 L -28 -50 Z" fill="#1e1b1b"/>
    <circle cx="-10" cy="-50" r="3" fill="#0d1117"/>
    <circle cx="10" cy="-50" r="3" fill="#0d1117"/>
    <ellipse cx="-12" cy="-48" rx="4" ry="2" fill="#fef3c7" opacity="0.6"/>
    <ellipse cx="12" cy="-48" rx="4" ry="2" fill="#fef3c7" opacity="0.6"/>
    <path d="M -10 -32 L -8 -22 L 0 -16" stroke="#7f1d1d" stroke-width="1" fill="none"/>
    <path d="M 8 -22 L 0 -16 L -8 -22" fill="#7f1d1d"/>
    <ellipse cx="-3" cy="-30" rx="3" ry="2" fill="#7f1d1d" opacity="0.7"/>
    <path d="M -12 -68 L -6 -66" stroke="#1e1b1b" stroke-width="2"/>
    <path d="M 6 -66 L 12 -68" stroke="#1e1b1b" stroke-width="2"/>

    <path d="M -42 -100 Q -60 -130 -65 -160" stroke="#475569" stroke-width="14" fill="none" stroke-linecap="round"/>
    <path d="M 42 -100 Q 60 -130 65 -160" stroke="#475569" stroke-width="14" fill="none" stroke-linecap="round"/>
    <ellipse cx="-65" cy="-165" rx="8" ry="10" fill="#cbd5e1"/>
    <ellipse cx="65" cy="-165" rx="8" ry="10" fill="#cbd5e1"/>
  </g>

  <text x="500" y="780" font-size="14" fill="#cbd5e1" text-anchor="middle" font-style="italic">"How?! The tests passed. The code review was clean. WHERE did this come from?"</text>
</svg>