<svg xmlns="http://www.w3.org/2000/svg" width="800" height="600" viewBox="0 0 800 600" font-family="ui-monospace, 'SF Mono', Menlo, Consolas, monospace">
  <defs>
    <radialGradient id="monitorGlow" cx="50%" cy="50%" r="50%">
      <stop offset="0%" stop-color="#a855f7" stop-opacity="0.3"/>
      <stop offset="100%" stop-color="#a855f7" stop-opacity="0"/>
    </radialGradient>
  </defs>

  <rect fill="#0d1117" width="800" height="600"/>

  <ellipse cx="400" cy="280" rx="500" ry="240" fill="url(#monitorGlow)"/>

  <line x1="0" y1="490" x2="800" y2="490" stroke="#1e293b" stroke-width="1"/>

  <rect x="40" y="120" width="320" height="220" fill="#111827" stroke="#a855f7" stroke-width="2" rx="6"/>
  <rect x="50" y="130" width="300" height="200" fill="#0d1117"/>
  <rect x="50" y="130" width="300" height="200" fill="#a855f7" opacity="0.05"/>
  <text x="56" y="148" font-size="9" fill="#94a3b8">---- MODULE Dialog ----</text>
  <text x="56" y="162" font-size="9" fill="#a855f7">VARIABLES state,</text>
  <text x="56" y="174" font-size="9" fill="#a855f7">  pendingResult</text>
  <text x="56" y="190" font-size="9" fill="#cbd5e1">Init == /\ state = "closed"</text>
  <text x="56" y="204" font-size="9" fill="#cbd5e1">        /\ pendingResult = "none"</text>
  <text x="56" y="222" font-size="9" fill="#22c55e">Confirm ==</text>
  <text x="56" y="234" font-size="9" fill="#22c55e">  /\ state = "open"</text>
  <text x="56" y="246" font-size="9" fill="#22c55e">  /\ state&apos; = "confirming"</text>
  <text x="56" y="262" font-size="9" fill="#ef4444">StateInvariant ==</text>
  <text x="56" y="274" font-size="9" fill="#ef4444">  state \in States</text>
  <text x="56" y="290" font-size="9" fill="#cbd5e1">====</text>
  <rect x="32" y="338" width="336" height="8" fill="#1e293b" rx="2"/>

  <rect x="440" y="120" width="320" height="220" fill="#111827" stroke="#22c55e" stroke-width="2" rx="6"/>
  <rect x="450" y="130" width="300" height="200" fill="#0d1117"/>
  <g>
    <circle cx="490" cy="170" r="14" fill="#22c55e"/>
    <text x="490" y="174" font-size="8" fill="#0d1117" text-anchor="middle" font-weight="bold">closed</text>
    <circle cx="600" cy="170" r="14" fill="#22c55e"/>
    <text x="600" y="174" font-size="8" fill="#0d1117" text-anchor="middle" font-weight="bold">open</text>
    <circle cx="710" cy="170" r="14" fill="#22c55e"/>
    <text x="710" y="174" font-size="7" fill="#0d1117" text-anchor="middle" font-weight="bold">conf</text>
    <circle cx="600" cy="270" r="14" fill="#22c55e"/>
    <text x="600" y="274" font-size="7" fill="#0d1117" text-anchor="middle" font-weight="bold">settle</text>
    <circle cx="490" cy="270" r="14" fill="#22c55e"/>
    <text x="490" y="274" font-size="7" fill="#0d1117" text-anchor="middle" font-weight="bold">cancel</text>

    <line x1="504" y1="170" x2="586" y2="170" stroke="#22c55e" stroke-width="2"/>
    <line x1="614" y1="170" x2="696" y2="170" stroke="#22c55e" stroke-width="2"/>
    <line x1="600" y1="184" x2="600" y2="256" stroke="#22c55e" stroke-width="2"/>
    <line x1="490" y1="184" x2="490" y2="256" stroke="#22c55e" stroke-width="2"/>
    <line x1="586" y1="270" x2="504" y2="270" stroke="#22c55e" stroke-width="2"/>

    <text x="545" y="200" font-size="9" fill="#22c55e" text-anchor="middle">Open</text>
    <text x="655" y="200" font-size="9" fill="#22c55e" text-anchor="middle">Confirm</text>
    <text x="620" y="230" font-size="9" fill="#22c55e">Resolve</text>
    <text x="450" y="230" font-size="9" fill="#22c55e" text-anchor="middle">Dismiss</text>
    <text x="545" y="295" font-size="9" fill="#22c55e" text-anchor="middle">FinishClose</text>
  </g>
  <rect x="432" y="338" width="336" height="8" fill="#1e293b" rx="2"/>

  <g transform="translate(380 380)" data-maya="present">
    <ellipse cx="0" cy="120" rx="120" ry="20" fill="#0d1117" opacity="0.6"/>
    <path d="M -50 50 L -50 100 L 50 100 L 50 50 Z" fill="#475569"/>
    <path d="M -50 50 Q -55 30 -40 25 L 40 25 Q 55 30 50 50 Z" fill="#1e293b"/>
    <path d="M -45 50 L -90 90" stroke="#c8a882" stroke-width="12" fill="none" stroke-linecap="round"/>
    <ellipse cx="-92" cy="92" rx="7" ry="9" fill="#c8a882"/>
    <path d="M 45 50 L 90 90" stroke="#c8a882" stroke-width="12" fill="none" stroke-linecap="round"/>
    <ellipse cx="92" cy="92" rx="7" ry="9" fill="#c8a882"/>

    <circle cx="0" cy="-10" r="22" fill="#c8a882"/>
    <path d="M -22 -22 Q -22 -42 0 -45 Q 22 -42 22 -22 L 22 -10 L -22 -10 Z" fill="#1e1b1b"/>
    <ellipse cx="-8" cy="-12" rx="2.5" ry="3" fill="#0d0807"/>
    <ellipse cx="8" cy="-12" rx="2.5" ry="3" fill="#0d0807"/>
    <ellipse cx="-10" cy="-13" rx="4" ry="2" fill="#c4b5fd" opacity="0.6"/>
    <ellipse cx="6" cy="-13" rx="4" ry="2" fill="#c4b5fd" opacity="0.6"/>
    <path d="M -10 -28 L -4 -26" stroke="#1e1b1b" stroke-width="2"/>
    <path d="M 4 -26 L 10 -28" stroke="#1e1b1b" stroke-width="2"/>
    <path d="M -7 0 Q 0 4 7 0" stroke="#1e1b1b" stroke-width="1.5" fill="none"/>
  </g>

  <g transform="translate(720 295)">
    <path d="M -6 4 L 0 -6 L 6 4 Z" fill="#ef4444" stroke="#7f1d1d" stroke-width="0.5" opacity="0.4"/>
  </g>

  <text x="400" y="40" font-size="24" fill="#a855f7" text-anchor="middle" font-weight="bold">The Model</text>
  <text x="400" y="560" font-size="13" fill="#cbd5e1" text-anchor="middle">Thursday. 47 lines of TLA+. The model is small. The states are clear.</text>
  <text x="400" y="582" font-size="13" fill="#f59e0b" text-anchor="middle" font-style="italic">"If state is 'confirming', the user can't click again... right?"</text>
</svg>