<svg xmlns="http://www.w3.org/2000/svg" width="1000" height="800" viewBox="0 0 1000 800" font-family="ui-monospace, 'SF Mono', Menlo, Consolas, monospace">
  <defs>
    <radialGradient id="crystalGlow" cx="50%" cy="50%" r="60%">
      <stop offset="0%" stop-color="#22c55e" stop-opacity="0.6"/>
      <stop offset="100%" stop-color="#22c55e" stop-opacity="0"/>
    </radialGradient>
    <radialGradient id="beamGlow" cx="50%" cy="50%" r="50%">
      <stop offset="0%" stop-color="#22c55e" stop-opacity="0.4"/>
      <stop offset="100%" stop-color="#22c55e" stop-opacity="0"/>
    </radialGradient>
    <radialGradient id="bugSpotlight" cx="50%" cy="50%" r="50%">
      <stop offset="0%" stop-color="#22c55e" stop-opacity="0.8"/>
      <stop offset="100%" stop-color="#22c55e" stop-opacity="0"/>
    </radialGradient>
  </defs>

  <rect fill="#0d1117" width="1000" height="800"/>

  <g stroke="#22c55e" stroke-width="1" opacity="0.4" fill="none">
    <circle cx="180" cy="120" r="6" fill="#22c55e" opacity="0.6"/>
    <circle cx="280" cy="100" r="6" fill="#22c55e" opacity="0.6"/>
    <circle cx="380" cy="140" r="6" fill="#22c55e" opacity="0.6"/>
    <circle cx="600" cy="100" r="6" fill="#22c55e" opacity="0.6"/>
    <circle cx="780" cy="120" r="6" fill="#22c55e" opacity="0.6"/>
    <circle cx="900" cy="160" r="6" fill="#22c55e" opacity="0.6"/>
    <circle cx="900" cy="220" r="6" fill="#22c55e" opacity="0.6"/>
    <circle cx="100" cy="200" r="6" fill="#22c55e" opacity="0.6"/>
    <circle cx="180" cy="280" r="6" fill="#22c55e" opacity="0.6"/>
    <line x1="180" y1="120" x2="280" y2="100"/>
    <line x1="280" y1="100" x2="380" y2="140"/>
    <line x1="380" y1="140" x2="600" y2="100"/>
    <line x1="600" y1="100" x2="780" y2="120"/>
    <line x1="780" y1="120" x2="900" y2="160"/>
    <line x1="900" y1="160" x2="900" y2="220"/>
    <line x1="900" y1="220" x2="780" y2="280"/>
    <line x1="780" y1="280" x2="600" y2="200"/>
    <line x1="600" y1="200" x2="380" y2="140"/>
    <line x1="100" y1="200" x2="180" y2="120"/>
    <line x1="100" y1="200" x2="180" y2="280"/>
  </g>

  <circle cx="500" cy="220" r="10" fill="#ef4444">
    <animate attributeName="opacity" values="1;0.3;1" dur="1.5s" repeatCount="indefinite"/>
  </circle>

  <ellipse cx="500" cy="450" rx="350" ry="280" fill="url(#crystalGlow)"/>

  <g transform="translate(500 450)">
    <polygon points="0,-160 110,-80 110,80 0,160 -110,80 -110,-80" fill="#0d1117" stroke="#22c55e" stroke-width="3"/>
    <polygon points="0,-160 110,-80 0,0 -110,-80" fill="#22c55e" opacity="0.2"/>
    <polygon points="0,-160 0,0 110,-80" fill="#22c55e" opacity="0.3"/>
    <polygon points="0,-160 0,0 -110,-80" fill="#22c55e" opacity="0.15"/>
    <polygon points="0,160 110,80 0,0 -110,80" fill="#22c55e" opacity="0.1"/>
    <line x1="0" y1="-160" x2="0" y2="160" stroke="#22c55e" stroke-width="1" opacity="0.5"/>
    <line x1="-110" y1="-80" x2="110" y2="80" stroke="#22c55e" stroke-width="1" opacity="0.5"/>
    <line x1="110" y1="-80" x2="-110" y2="80" stroke="#22c55e" stroke-width="1" opacity="0.5"/>
    <text y="-10" font-size="22" fill="#22c55e" text-anchor="middle" font-weight="bold">TLC</text>
    <text y="15" font-size="9" fill="#22c55e" text-anchor="middle" opacity="0.7">model checker</text>
    <text y="40" font-size="8" fill="#86efac" text-anchor="middle" opacity="0.6">14 generated</text>
    <text y="55" font-size="8" fill="#86efac" text-anchor="middle" opacity="0.6">12 distinct</text>
    <text y="80" font-size="10" fill="#22c55e" text-anchor="middle" font-weight="bold">CHECKING</text>
    <circle cx="0" cy="100" r="4" fill="#22c55e">
      <animate attributeName="opacity" values="1;0.3;1" dur="1s" repeatCount="indefinite"/>
    </circle>
  </g>

  <line x1="610" y1="450" x2="850" y2="500" stroke="#22c55e" stroke-width="3"/>
  <ellipse cx="850" cy="500" rx="60" ry="40" fill="url(#beamGlow)"/>

  <ellipse cx="800" cy="500" rx="50" ry="35" fill="url(#bugSpotlight)"/>
  <g transform="translate(800 500)">
    <path d="M -20 14 L 0 -24 L 20 14 Z" fill="#ef4444" stroke="#7f1d1d" stroke-width="1"/>
    <circle cx="-7" cy="-5" r="2.5" fill="#0d1117"/>
    <circle cx="7" cy="-5" r="2.5" fill="#0d1117"/>
    <path d="M -5 6 L 5 6" stroke="#0d1117" stroke-width="2"/>
    <path d="M -4 6 L 0 16 L 4 6" fill="#0d1117"/>
  </g>
  <text x="800" y="555" font-size="11" fill="#ef4444" text-anchor="middle" font-weight="bold">BUG SPOTTED</text>

  <g transform="translate(150 600)" data-maya="present">
    <ellipse cx="0" cy="120" rx="80" ry="20" fill="#0d1117" opacity="0.6"/>
    <path d="M -28 50 L -28 110 L 28 110 L 28 50 Z" fill="#475569"/>
    <path d="M -28 50 Q -32 30 -18 25 L 18 25 Q 32 30 28 50 Z" fill="#1e293b"/>
    <path d="M 28 50 L 60 -10" stroke="#c8a882" stroke-width="12" fill="none" stroke-linecap="round"/>
    <ellipse cx="62" cy="-12" rx="6" ry="8" fill="#c8a882"/>
    <path d="M -28 30 Q -38 25 -42 18" stroke="#c8a882" stroke-width="12" fill="none" stroke-linecap="round"/>
    <ellipse cx="-44" cy="16" rx="6" ry="8" fill="#c8a882"/>

    <circle cx="0" cy="-12" r="20" fill="#c8a882"/>
    <path d="M -20 -22 Q -20 -40 0 -42 Q 20 -40 20 -22 L 20 -12 L -20 -12 Z" fill="#1e1b1b"/>
    <ellipse cx="-7" cy="-12" rx="2.5" ry="3" fill="#0d0807"/>
    <ellipse cx="7" cy="-12" rx="2.5" ry="3" fill="#0d0807"/>
    <ellipse cx="-9" cy="-13" rx="4" ry="2" fill="#86efac" opacity="0.7"/>
    <ellipse cx="5" cy="-13" rx="4" ry="2" fill="#86efac" opacity="0.7"/>
    <path d="M -8 -28 L -2 -26" stroke="#1e1b1b" stroke-width="2"/>
    <path d="M 2 -26 L 8 -28" stroke="#1e1b1b" stroke-width="2"/>
    <ellipse cx="0" cy="0" rx="3" ry="2" fill="#1e1b1b"/>
    <path d="M -3 4 Q 0 6 3 4" stroke="#1e1b1b" stroke-width="1.5" fill="none"/>
  </g>

  <g transform="translate(310 640)" data-formalist="present">
    <ellipse cx="0" cy="80" rx="80" ry="15" fill="#0d1117" opacity="0.5"/>
    <path d="M -28 30 L -28 75 L 28 75 L 28 30 Z" fill="#64748b"/>
    <path d="M -28 30 Q -32 10 -18 5 L 18 5 Q 32 10 28 30 Z" fill="#1e293b"/>
    <circle cx="0" cy="-15" r="18" fill="#d4b896"/>
    <path d="M -18 -25 Q -18 -42 0 -45 Q 18 -42 18 -25 L 18 -15 L -18 -15 Z" fill="#e5e5e5"/>
    <circle cx="-7" cy="-15" r="4" fill="none" stroke="#1e293b" stroke-width="1"/>
    <circle cx="7" cy="-15" r="4" fill="none" stroke="#1e293b" stroke-width="1"/>
    <line x1="-3" y1="-15" x2="3" y2="-15" stroke="#1e293b" stroke-width="2"/>
    <path d="M -6 -2 Q 0 2 6 -2" stroke="#1e293b" stroke-width="1.5" fill="none"/>
  </g>

  <rect x="320" y="180" width="380" height="60" fill="#0d1117" stroke="#22c55e" stroke-width="2" rx="6"/>
  <text x="510" y="208" font-size="18" fill="#22c55e" text-anchor="middle" font-weight="bold">StateInvariant violated</text>
  <text x="510" y="228" font-size="11" fill="#86efac" text-anchor="middle">state can be 'confirming' AND 'closed' simultaneously</text>

  <text x="500" y="50" font-size="26" fill="#22c55e" text-anchor="middle" font-weight="bold">TLC Finds It</text>
  <text x="500" y="780" font-size="13" fill="#cbd5e1" text-anchor="middle">Friday. 14 generated. 12 distinct. Then —</text>
  <text x="500" y="100" font-size="14" fill="#f59e0b" text-anchor="middle" font-style="italic">"TLC: StateInvariant violated"</text>
</svg>