<svg xmlns="http://www.w3.org/2000/svg" width="600" height="400" viewBox="0 0 600 400" font-family="ui-monospace, 'SF Mono', Menlo, Consolas, monospace">
  <defs>
    <pattern id="metaConstellation" x="0" y="0" width="60" height="60" patternUnits="userSpaceOnUse">
      <circle cx="10" cy="20" r="1.5" fill="#22c55e" opacity="0.3"/>
      <circle cx="40" cy="40" r="1.5" fill="#22c55e" opacity="0.3"/>
      <line x1="10" y1="20" x2="40" y2="40" stroke="#22c55e" stroke-width="0.5" opacity="0.2"/>
      <circle cx="50" cy="10" r="1" fill="#22c55e" opacity="0.3"/>
    </pattern>
  </defs>

  <rect fill="#0d1117" width="600" height="400"/>
  <rect width="600" height="400" fill="url(#metaConstellation)"/>

  <g transform="translate(300 220) rotate(-8)">
    <rect x="-220" y="-90" width="440" height="180" fill="#22c55e" stroke="#15803d" stroke-width="6" rx="4"/>
    <rect x="-200" y="-70" width="400" height="140" fill="none" stroke="#15803d" stroke-width="2" rx="2"/>
    <text y="-15" font-size="80" fill="#0d1117" text-anchor="middle" font-weight="bold">VERIFIED</text>
    <text y="35" font-size="14" fill="#0d1117" text-anchor="middle">artifacts/comic-v3</text>
    <text y="55" font-size="11" fill="#15803d" text-anchor="middle">SANY + TLC — VERIFIED</text>
  </g>

  <g transform="translate(520 350)" data-maya="present">
    <ellipse cx="0" cy="40" rx="40" ry="8" fill="#0d1117" opacity="0.5"/>
    <path d="M -16 0 L -16 30 L 16 30 L 16 0 Z" fill="#475569"/>
    <circle cx="0" cy="-15" r="13" fill="#c8a882"/>
    <path d="M -13 -22 Q -13 -34 0 -36 Q 13 -34 13 -22 L 13 -15 L -13 -15 Z" fill="#1e1b1b"/>
    <ellipse cx="-5" cy="-15" rx="1.5" ry="2" fill="#0d0807"/>
    <ellipse cx="5" cy="-15" rx="1.5" ry="2" fill="#0d0807"/>
    <path d="M -5 -8 Q 0 -5 5 -8" stroke="#0d0807" stroke-width="1" fill="none"/>
  </g>

  <text x="300" y="50" font-size="24" fill="#22c55e" text-anchor="middle" font-weight="bold">The Math of Trust</text>
  <text x="300" y="380" font-size="12" fill="#cbd5e1" text-anchor="middle" font-style="italic">From vibe-coding to math-coding.</text>
</svg>