<svg xmlns="http://www.w3.org/2000/svg" width="800" height="600" viewBox="0 0 800 600" font-family="ui-monospace, 'SF Mono', Menlo, Consolas, monospace">
  <rect fill="#0d1117" width="800" height="600"/>

  <g>
    <rect x="40" y="60" width="220" height="500" fill="#111827" stroke="#1e293b" stroke-width="3" rx="8"/>
    <text x="150" y="44" font-size="16" fill="#94a3b8" text-anchor="middle">SAT 2:14 PM</text>
    <rect x="70" y="100" width="160" height="240" fill="#0d1117" stroke="#1e293b" stroke-width="2" rx="8"/>
    <text x="150" y="138" font-size="14" fill="#3b82f6" text-anchor="middle">Checkout</text>
    <text x="150" y="158" font-size="20" fill="#cbd5e1" text-anchor="middle" font-weight="bold">$99.00</text>
    <rect x="100" y="280" width="100" height="32" fill="#22c55e" rx="4"/>
    <text x="150" y="301" font-size="16" fill="#0d1117" text-anchor="middle" font-weight="bold">CONFIRM</text>
    <text x="150" y="332" font-size="13" fill="#475569" text-anchor="middle" font-style="italic">// it works</text>
    <g transform="translate(220 296)">
      <circle r="20" fill="none" stroke="#22c55e" stroke-width="4"/>
      <path d="M -8 0 L -2 6 L 9 -7" stroke="#22c55e" stroke-width="4" fill="none"/>
    </g>

    <g transform="translate(150 410)">
      <circle r="36" fill="#c8a882"/>
      <path d="M -36 -10 Q -36 -42 0 -50 Q 36 -42 36 -10 L 36 14 L -36 14 Z" fill="#1e1b1b"/>
      <path d="M -36 -42 Q -22 -50 0 -52 Q 22 -50 36 -42" fill="#0d0d0d"/>
      <ellipse cx="-10" cy="-6" rx="3" ry="4" fill="#0d0807"/>
      <ellipse cx="10" cy="-6" rx="3" ry="4" fill="#0d0807"/>
      <ellipse cx="-12" cy="-9" rx="6" ry="2" fill="#c4b5fd" opacity="0.6"/>
      <ellipse cx="12" cy="-9" rx="6" ry="2" fill="#c4b5fd" opacity="0.6"/>
      <path d="M -8 -19 L 0 -17" stroke="#1e1b1b" stroke-width="2"/>
      <path d="M 0 -17 L 8 -19" stroke="#1e1b1b" stroke-width="2"/>
      <path d="M -10 18 Q 0 26 10 18" stroke="#0d0807" stroke-width="2" fill="none"/>
      <path d="M -32 14 Q -42 30 -42 80 L 42 80 L 42 30 Q 42 14 -32 14 Z" fill="#fbbf24"/>
      <text y="60" font-size="14" fill="#0d1117" text-anchor="middle" font-weight="bold">USER_1</text>
    </g>
  </g>

  <g>
    <rect x="290" y="60" width="220" height="500" fill="#111827" stroke="#1e293b" stroke-width="3" rx="8"/>
    <text x="400" y="44" font-size="16" fill="#94a3b8" text-anchor="middle">SUN 11:32 AM</text>
    <rect x="320" y="100" width="160" height="240" fill="#0d1117" stroke="#1e293b" stroke-width="2" rx="8"/>
    <text x="400" y="138" font-size="14" fill="#3b82f6" text-anchor="middle">Checkout</text>
    <text x="400" y="158" font-size="20" fill="#cbd5e1" text-anchor="middle" font-weight="bold">$149.99</text>
    <rect x="350" y="280" width="100" height="32" fill="#22c55e" rx="4"/>
    <text x="400" y="301" font-size="16" fill="#0d1117" text-anchor="middle" font-weight="bold">CONFIRM</text>
    <text x="400" y="332" font-size="13" fill="#475569" text-anchor="middle" font-style="italic">// on MY machine</text>
    <g transform="translate(470 296)">
      <circle r="20" fill="none" stroke="#22c55e" stroke-width="4"/>
      <path d="M -8 0 L -2 6 L 9 -7" stroke="#22c55e" stroke-width="4" fill="none"/>
    </g>

    <g transform="translate(400 410)">
      <circle r="36" fill="#e8c0a0"/>
      <path d="M -36 -8 Q -36 -40 -8 -48 Q 8 -50 8 -54 Q 32 -50 36 -32 L 36 14 L -36 14 Z" fill="#a87149"/>
      <path d="M -8 -48 Q 8 -50 8 -54 Q 32 -50 36 -32" fill="#a87149"/>
      <ellipse cx="-10" cy="0" rx="3" ry="4" fill="#0d0807"/>
      <ellipse cx="10" cy="0" rx="3" ry="4" fill="#0d0807"/>
      <ellipse cx="-12" cy="-3" rx="6" ry="2" fill="#c4b5fd" opacity="0.6"/>
      <ellipse cx="12" cy="-3" rx="6" ry="2" fill="#c4b5fd" opacity="0.6"/>
      <path d="M -8 -12 L 0 -10" stroke="#1e1b1b" stroke-width="2"/>
      <path d="M 0 -10 L 8 -12" stroke="#1e1b1b" stroke-width="2"/>
      <path d="M -10 22 Q 0 30 10 22" stroke="#0d0807" stroke-width="2" fill="none"/>
      <path d="M -32 14 Q -42 30 -42 80 L 42 80 L 42 30 Q 42 14 -32 14 Z" fill="#dc2626"/>
      <text y="60" font-size="14" fill="#0d1117" text-anchor="middle" font-weight="bold">USER_2</text>
    </g>
  </g>

  <g>
    <rect x="540" y="60" width="220" height="500" fill="#111827" stroke="#1e293b" stroke-width="3" rx="8"/>
    <text x="650" y="44" font-size="16" fill="#94a3b8" text-anchor="middle">SUN 8:45 PM</text>
    <rect x="570" y="100" width="160" height="240" fill="#0d1117" stroke="#1e293b" stroke-width="2" rx="8"/>
    <text x="650" y="138" font-size="14" fill="#3b82f6" text-anchor="middle">Checkout</text>
    <text x="650" y="158" font-size="20" fill="#cbd5e1" text-anchor="middle" font-weight="bold">$12.50</text>
    <rect x="600" y="280" width="100" height="32" fill="#22c55e" rx="4"/>
    <text x="650" y="301" font-size="16" fill="#0d1117" text-anchor="middle" font-weight="bold">CONFIRM</text>
    <text x="650" y="332" font-size="13" fill="#475569" text-anchor="middle" font-style="italic">// ship happens</text>
    <g transform="translate(720 296)">
      <circle r="20" fill="none" stroke="#22c55e" stroke-width="4"/>
      <path d="M -8 0 L -2 6 L 9 -7" stroke="#22c55e" stroke-width="4" fill="none"/>
    </g>

    <g transform="translate(650 410)">
      <circle r="36" fill="#a37862"/>
      <path d="M -36 -12 Q -36 -44 0 -52 Q 36 -44 36 -12 L 36 14 L -36 14 Z" fill="#0d0d0d"/>
      <ellipse cx="-10" cy="-4" rx="3" ry="4" fill="#0d0807"/>
      <ellipse cx="10" cy="-4" rx="3" ry="4" fill="#0d0807"/>
      <ellipse cx="-12" cy="-7" rx="6" ry="2" fill="#c4b5fd" opacity="0.6"/>
      <ellipse cx="12" cy="-7" rx="6" ry="2" fill="#c4b5fd" opacity="0.6"/>
      <path d="M -8 -16 L 0 -14" stroke="#1e1b1b" stroke-width="2"/>
      <path d="M 0 -14 L 8 -16" stroke="#1e1b1b" stroke-width="2"/>
      <path d="M -10 18 Q 0 26 10 18" stroke="#0d0807" stroke-width="2" fill="none"/>
      <path d="M -32 14 Q -42 30 -42 80 L 42 80 L 42 30 Q 42 14 -32 14 Z" fill="#059669"/>
      <text y="60" font-size="14" fill="#0d1117" text-anchor="middle" font-weight="bold">USER_3</text>
    </g>
  </g>

  <g transform="translate(770 360)">
    <circle r="20" fill="#22c55e"/>
    <text y="6" font-size="13" fill="#0d1117" text-anchor="middle" font-weight="bold">✓</text>
  </g>
  <text x="770" y="395" font-size="11" fill="#94a3b8" text-anchor="middle">847</text>

  <text x="400" y="585" font-size="22" fill="#22c55e" text-anchor="middle" font-weight="bold">847 clicks. 847 confirmations. 847 happy users.</text>
</svg>