<svg xmlns="http://www.w3.org/2000/svg" width="800" height="600" viewBox="0 0 800 600" font-family="ui-monospace, 'SF Mono', Menlo, Consolas, monospace">
  <defs>
    <pattern id="metaConstellation4" x="0" y="0" width="80" height="80" patternUnits="userSpaceOnUse">
      <circle cx="14" cy="28" r="2" fill="#22c55e" opacity="0.4"/>
      <circle cx="56" cy="56" r="2" fill="#22c55e" opacity="0.4"/>
      <line x1="14" y1="28" x2="56" y2="56" stroke="#22c55e" stroke-width="0.6" opacity="0.25"/>
      <circle cx="68" cy="14" r="1.5" fill="#22c55e" opacity="0.4"/>
      <circle cx="34" cy="62" r="1.5" fill="#22c55e" opacity="0.4"/>
    </pattern>
  </defs>

  <rect fill="#0d1117" width="800" height="600"/>
  <rect width="800" height="600" fill="url(#metaConstellation4)"/>

  <g transform="translate(400 320) rotate(-8)">
    <rect x="-280" y="-110" width="560" height="220" fill="#22c55e" stroke="#15803d" stroke-width="8" rx="6"/>
    <rect x="-260" y="-90" width="520" height="180" fill="none" stroke="#15803d" stroke-width="3" rx="4"/>
    <text y="-12" font-size="100" fill="#0d1117" text-anchor="middle" font-weight="bold">VERIFIED</text>
    <text y="48" font-size="18" fill="#0d1117" text-anchor="middle">artifacts/comic-v4-en</text>
    <text y="74" font-size="14" fill="#15803d" text-anchor="middle">SANY + TLC — VERIFIED</text>
    <text y="-50" font-size="11" fill="#15803d" text-anchor="middle" font-style="italic">// all your tests</text>
    <text y="-36" font-size="11" fill="#15803d" text-anchor="middle" font-style="italic">// are belong to us</text>
  </g>

  <g transform="translate(700 510)" data-maya="present">
    <ellipse cx="0" cy="40" rx="50" ry="10" fill="#0d1117" opacity="0.5"/>
    <path d="M -20 0 L -20 32 L 20 32 L 20 0 Z" fill="#475569"/>
    <circle cx="0" cy="-15" r="16" fill="#c8a882"/>
    <path d="M -16 -22 Q -16 -36 0 -38 Q 16 -36 16 -22 L 16 -15 L -16 -15 Z" fill="#1e1b1b"/>
    <ellipse cx="-6" cy="-15" rx="2" ry="2.5" fill="#0d0807"/>
    <ellipse cx="6" cy="-15" rx="2" ry="2.5" fill="#0d0807"/>
    <path d="M -6 -8 Q 0 -4 6 -8" stroke="#0d0807" stroke-width="1.5" fill="none"/>
  </g>

  <text x="400" y="80" font-size="36" fill="#22c55e" text-anchor="middle" font-weight="bold">The Math of Trust</text>
  <text x="400" y="565" font-size="20" fill="#cbd5e1" text-anchor="middle" font-style="italic">From vibe-coding to math-coding.</text>
</svg>