<svg xmlns="http://www.w3.org/2000/svg" width="1000" height="700" viewBox="0 0 1000 700" font-family="ui-monospace, 'SF Mono', Menlo, Consolas, monospace">
  <defs>
    <radialGradient id="tabletGlow4" cx="50%" cy="50%" r="60%">
      <stop offset="0%" stop-color="#a855f7" stop-opacity="0.55"/>
      <stop offset="100%" stop-color="#a855f7" stop-opacity="0"/>
    </radialGradient>
    <radialGradient id="faceGlow4" cx="50%" cy="50%" r="50%">
      <stop offset="0%" stop-color="#a855f7" stop-opacity="0.35"/>
      <stop offset="100%" stop-color="#a855f7" stop-opacity="0"/>
    </radialGradient>
  </defs>

  <rect fill="#0d1117" width="1000" height="700"/>

  <ellipse cx="380" cy="400" rx="350" ry="240" fill="url(#tabletGlow4)"/>

  <g stroke="#22c55e" stroke-width="1" opacity="0.3" fill="none">
    <circle cx="120" cy="120" r="8" fill="#22c55e" opacity="0.5"/>
    <circle cx="220" cy="80" r="8" fill="#22c55e" opacity="0.5"/>
    <circle cx="900" cy="100" r="8" fill="#22c55e" opacity="0.5"/>
    <circle cx="800" cy="180" r="8" fill="#22c55e" opacity="0.5"/>
    <circle cx="160" cy="220" r="8" fill="#22c55e" opacity="0.5"/>
    <line x1="120" y1="120" x2="220" y2="80"/>
    <line x1="220" y1="80" x2="400" y2="160"/>
    <line x1="400" y1="160" x2="800" y2="180"/>
    <line x1="800" y1="180" x2="900" y2="100"/>
    <line x1="400" y1="160" x2="160" y2="220"/>
  </g>

  <g transform="translate(160 130)" opacity="0.6">
    <path d="M -12 8 L 0 -12 L 12 8 Z" fill="#ef4444" opacity="0.8"/>
    <circle cx="-4" cy="-1" r="2" fill="#0d1117"/>
    <circle cx="4" cy="-1" r="2" fill="#0d1117"/>
  </g>

  <g data-maya="present">
    <ellipse cx="780" cy="560" rx="160" ry="40" fill="#0d1117" opacity="0.5"/>

    <path d="M 720 350 Q 700 320 730 300 Q 760 285 800 285 Q 840 285 870 300 Q 900 320 880 350 L 720 350 Z" fill="#1e1b1b"/>
    <path d="M 720 350 L 730 480 L 870 480 L 880 350 Z" fill="#475569"/>
    <path d="M 730 480 L 730 590 L 820 590 L 820 480 Z" fill="#475569"/>
    <path d="M 870 480 L 870 590 L 820 590 L 820 480 Z" fill="#334155"/>
    <path d="M 720 350 Q 695 365 700 400" stroke="#475569" stroke-width="8" fill="none"/>
    <path d="M 880 350 Q 905 365 900 400" stroke="#475569" stroke-width="8" fill="none"/>

    <ellipse cx="800" cy="350" rx="70" ry="56" fill="url(#faceGlow4)"/>
    <circle cx="800" cy="350" r="38" fill="#c8a882"/>
    <path d="M 762 322 Q 770 300 800 296 Q 830 300 838 322 L 838 340 L 762 340 Z" fill="#1e1b1b"/>
    <ellipse cx="788" cy="350" rx="3" ry="4" fill="#0d0807"/>
    <ellipse cx="812" cy="350" rx="3" ry="4" fill="#0d0807"/>
    <ellipse cx="785" cy="347" rx="6" ry="2" fill="#c4b5fd" opacity="0.7"/>
    <ellipse cx="815" cy="347" rx="6" ry="2" fill="#c4b5fd" opacity="0.7"/>
    <path d="M 783 332 L 791 329" stroke="#1e1b1b" stroke-width="2.5"/>
    <path d="M 809 329 L 817 332" stroke="#1e1b1b" stroke-width="2.5"/>
    <path d="M 786 366 Q 800 380 814 366" stroke="#1e1b1b" stroke-width="2.5" fill="none"/>

    <path d="M 705 380 Q 670 410 660 470" stroke="#c8a882" stroke-width="16" fill="none" stroke-linecap="round"/>
    <ellipse cx="657" cy="475" rx="11" ry="13" fill="#c8a882"/>
    <path d="M 720 370 Q 690 380 670 390" stroke="#c8a882" stroke-width="3" fill="none"/>
  </g>

  <g data-formalist="present">
    <ellipse cx="340" cy="600" rx="140" ry="32" fill="#0d1117" opacity="0.5"/>

    <path d="M 280 330 Q 250 305 270 280 Q 295 265 340 265 Q 385 265 410 280 Q 430 305 400 330 L 280 330 Z" fill="#e2e8f0"/>
    <path d="M 280 330 L 290 510 L 400 510 L 400 330 Z" fill="#64748b"/>
    <path d="M 280 330 Q 245 360 250 405 Q 255 435 280 450" stroke="#64748b" stroke-width="8" fill="none"/>
    <path d="M 400 330 Q 435 360 430 405 Q 425 435 400 450" stroke="#64748b" stroke-width="8" fill="none"/>
    <path d="M 305 380 L 305 410" stroke="#1e293b" stroke-width="2.5"/>
    <path d="M 325 380 L 325 410" stroke="#1e293b" stroke-width="2.5"/>

    <ellipse cx="340" cy="345" rx="58" ry="48" fill="url(#faceGlow4)"/>
    <circle cx="340" cy="345" r="38" fill="#d4b896"/>
    <path d="M 302 320 Q 308 295 340 290 Q 372 295 378 320 L 378 340 L 302 340 Z" fill="#e5e5e5"/>
    <path d="M 308 340 L 308 360 Q 314 372 340 376 Q 366 372 372 360 L 372 340" fill="#e5e5e5"/>
    <circle cx="328" cy="345" r="6" fill="none" stroke="#1e293b" stroke-width="2"/>
    <circle cx="352" cy="345" r="6" fill="none" stroke="#1e293b" stroke-width="2"/>
    <line x1="334" y1="345" x2="322" y2="345" stroke="#1e293b" stroke-width="1.5"/>
    <line x1="358" y1="345" x2="346" y2="345" stroke="#1e293b" stroke-width="1.5"/>
    <path d="M 332 380 Q 340 386 348 380" stroke="#1e293b" stroke-width="2" fill="none"/>

    <path d="M 250 410 Q 220 440 215 480" stroke="#d4b896" stroke-width="16" fill="none" stroke-linecap="round"/>
    <ellipse cx="212" cy="485" rx="11" ry="13" fill="#d4b896"/>

    <rect x="240" y="490" width="220" height="130" fill="#111827" stroke="#a855f7" stroke-width="3" rx="6"/>
    <rect x="252" y="502" width="196" height="106" fill="#0d1117"/>
    <text x="262" y="524" font-size="16" fill="#a855f7">---- MODULE Dialog ----</text>
    <text x="262" y="544" font-size="16" fill="#a855f7">VARIABLES state,</text>
    <text x="262" y="562" font-size="16" fill="#a855f7">  pendingResult</text>
    <text x="262" y="586" font-size="16" fill="#22c55e">Spec == Init /\ [][Next]_vars</text>

    <g transform="translate(420 540)">
      <circle r="14" fill="#f59e0b" opacity="0.3"/>
      <text y="2" font-size="11" fill="#f59e0b" text-anchor="middle" font-weight="bold">♥</text>
      <text x="0" y="22" font-size="9" fill="#f59e0b" text-anchor="middle">TLA+</text>
    </g>
  </g>

  <g transform="translate(640 230)">
    <path d="M 0 0 L 130 -45 L 155 15 L 145 90 L 25 115 Z" fill="#0d1117" stroke="#f59e0b" stroke-width="3"/>
    <text x="80" y="40" font-size="20" fill="#f59e0b" text-anchor="middle">«Можно доказать,</text>
    <text x="80" y="65" font-size="20" fill="#f59e0b" text-anchor="middle">что такого</text>
    <text x="80" y="90" font-size="20" fill="#f59e0b" text-anchor="middle">никогда не случится.»</text>
  </g>

  <text x="500" y="60" font-size="40" fill="#a855f7" text-anchor="middle" font-weight="bold">Ментор</text>

  <rect x="80" y="630" width="840" height="50" fill="#111827" stroke="#1e293b" stroke-width="2" rx="6" opacity="0.85"/>
  <text x="500" y="660" font-size="20" fill="#cbd5e1" text-anchor="middle">Среда. Формалист заходит к её столу.</text>
  <rect x="200" y="688" width="600" height="40" fill="#0d1117" stroke="#f59e0b" stroke-width="2" rx="4" opacity="0.85"/>
  <text x="500" y="712" font-size="20" fill="#f59e0b" text-anchor="middle" font-style="italic">«Можно доказать, что такого happens. Before you ship."</text>
</svg>