<svg xmlns="http://www.w3.org/2000/svg" width="1200" height="900" viewBox="0 0 1200 900" font-family="ui-monospace, 'SF Mono', Menlo, Consolas, monospace">
  <defs>
    <radialGradient id="crystalGlow4" cx="50%" cy="50%" r="60%">
      <stop offset="0%" stop-color="#22c55e" stop-opacity="0.7"/>
      <stop offset="100%" stop-color="#22c55e" stop-opacity="0"/>
    </radialGradient>
    <radialGradient id="beamGlow4" cx="50%" cy="50%" r="50%">
      <stop offset="0%" stop-color="#22c55e" stop-opacity="0.5"/>
      <stop offset="100%" stop-color="#22c55e" stop-opacity="0"/>
    </radialGradient>
    <radialGradient id="bugSpotlight4" cx="50%" cy="50%" r="50%">
      <stop offset="0%" stop-color="#22c55e" stop-opacity="0.9"/>
      <stop offset="100%" stop-color="#22c55e" stop-opacity="0"/>
    </radialGradient>
  </defs>

  <rect fill="#0d1117" width="1200" height="900"/>

  <g stroke="#22c55e" stroke-width="1" opacity="0.45" fill="none">
    <circle cx="180" cy="120" r="8" fill="#22c55e" opacity="0.7"/>
    <circle cx="280" cy="100" r="8" fill="#22c55e" opacity="0.7"/>
    <circle cx="380" cy="140" r="8" fill="#22c55e" opacity="0.7"/>
    <circle cx="800" cy="100" r="8" fill="#22c55e" opacity="0.7"/>
    <circle cx="980" cy="120" r="8" fill="#22c55e" opacity="0.7"/>
    <circle cx="1100" cy="160" r="8" fill="#22c55e" opacity="0.7"/>
    <circle cx="1100" cy="220" r="8" fill="#22c55e" opacity="0.7"/>
    <circle cx="100" cy="200" r="8" fill="#22c55e" opacity="0.7"/>
    <circle cx="180" cy="280" r="8" fill="#22c55e" opacity="0.7"/>
    <line x1="180" y1="120" x2="280" y2="100"/>
    <line x1="280" y1="100" x2="380" y2="140"/>
    <line x1="380" y1="140" x2="800" y2="100"/>
    <line x1="800" y1="100" x2="980" y2="120"/>
    <line x1="980" y1="120" x2="1100" y2="160"/>
    <line x1="1100" y1="160" x2="1100" y2="220"/>
    <line x1="1100" y1="220" x2="980" y2="280"/>
    <line x1="980" y1="280" x2="800" y2="200"/>
    <line x1="800" y1="200" x2="380" y2="140"/>
    <line x1="100" y1="200" x2="180" y2="120"/>
    <line x1="100" y1="200" x2="180" y2="280"/>
  </g>

  <circle cx="600" cy="220" r="14" fill="#ef4444">
    <animate attributeName="opacity" values="1;0.3;1" dur="1.5s" repeatCount="indefinite"/>
  </circle>
  <text x="600" y="194" font-size="13" fill="#ef4444" text-anchor="middle" font-weight="bold">БАГ</text>

  <ellipse cx="600" cy="500" rx="420" ry="320" fill="url(#crystalGlow4)"/>

  <g transform="translate(600 500)">
    <polygon points="0,-200 138,-100 138,100 0,200 -138,100 -138,-100" fill="#0d1117" stroke="#22c55e" stroke-width="4"/>
    <polygon points="0,-200 138,-100 0,0 -138,-100" fill="#22c55e" opacity="0.25"/>
    <polygon points="0,-200 0,0 138,-100" fill="#22c55e" opacity="0.35"/>
    <polygon points="0,-200 0,0 -138,-100" fill="#22c55e" opacity="0.18"/>
    <polygon points="0,200 138,100 0,0 -138,100" fill="#22c55e" opacity="0.12"/>
    <line x1="0" y1="-200" x2="0" y2="200" stroke="#22c55e" stroke-width="1.5" opacity="0.6"/>
    <line x1="-138" y1="-100" x2="138" y2="100" stroke="#22c55e" stroke-width="1.5" opacity="0.6"/>
    <line x1="138" y1="-100" x2="-138" y2="100" stroke="#22c55e" stroke-width="1.5" opacity="0.6"/>
    <text y="-15" font-size="32" fill="#22c55e" text-anchor="middle" font-weight="bold">TLC</text>
    <text y="18" font-size="13" fill="#22c55e" text-anchor="middle" opacity="0.8">верификатор моделей</text>
    <text y="48" font-size="11" fill="#86efac" text-anchor="middle" opacity="0.7">14 сгенерировано, 12 разных</text>
    <text y="62" font-size="11" fill="#86efac" text-anchor="middle" opacity="0.7">0 сожалений</text>
    <text y="100" font-size="14" fill="#22c55e" text-anchor="middle" font-weight="bold">ПРОВЕРКА</text>
    <circle cx="0" cy="120" r="6" fill="#22c55e">
      <animate attributeName="opacity" values="1;0.3;1" dur="1s" repeatCount="indefinite"/>
    </circle>
  </g>

  <line x1="740" y1="500" x2="1000" y2="560" stroke="#22c55e" stroke-width="4"/>
  <ellipse cx="1000" cy="560" rx="80" ry="50" fill="url(#beamGlow4)"/>

  <ellipse cx="970" cy="560" rx="70" ry="50" fill="url(#bugSpotlight4)"/>
  <g transform="translate(970 560)">
    <path d="M -28 20 L 0 -32 L 28 20 Z" fill="#ef4444" stroke="#7f1d1d" stroke-width="2"/>
    <circle cx="-10" cy="-6" r="3" fill="#0d1117"/>
    <circle cx="10" cy="-6" r="3" fill="#0d1117"/>
    <path d="M -7 8 L 7 8" stroke="#0d1117" stroke-width="2.5"/>
    <path d="M -5 8 L 0 20 L 5 8" fill="#0d1117"/>
    <path d="M 4 0 Q 8 -4 12 0" stroke="#22c55e" stroke-width="1.5" fill="none" opacity="0.6"/>
  </g>
  <text x="970" y="625" font-size="16" fill="#ef4444" text-anchor="middle" font-weight="bold">БАГ НАЙДЕН</text>

  <g transform="translate(180 700)" data-maya="present">
    <ellipse cx="0" cy="120" rx="100" ry="22" fill="#0d1117" opacity="0.6"/>

    <path d="M -36 50 L -36 110 L 36 110 L 36 50 Z" fill="#475569"/>
    <path d="M -36 50 Q -42 30 -28 25 L 28 25 Q 42 30 36 50 Z" fill="#1e293b"/>
    <path d="M 36 30 L 80 -20" stroke="#c8a882" stroke-width="14" fill="none" stroke-linecap="round"/>
    <ellipse cx="84" cy="-22" rx="8" ry="10" fill="#c8a882"/>
    <path d="M -36 30 Q -50 25 -56 18" stroke="#c8a882" stroke-width="14" fill="none" stroke-linecap="round"/>
    <ellipse cx="-58" cy="16" rx="8" ry="10" fill="#c8a882"/>

    <circle cx="0" cy="-12" r="26" fill="#c8a882"/>
    <path d="M -26 -22 Q -26 -45 0 -48 Q 26 -45 26 -22 L 26 -12 L -26 -12 Z" fill="#1e1b1b"/>
    <ellipse cx="-9" cy="-12" rx="3" ry="4" fill="#0d0807"/>
    <ellipse cx="9" cy="-12" rx="3" ry="4" fill="#0d0807"/>
    <ellipse cx="-11" cy="-14" rx="6" ry="2" fill="#86efac" opacity="0.7"/>
    <ellipse cx="7" cy="-14" rx="6" ry="2" fill="#86efac" opacity="0.7"/>
    <path d="M -10 -32 L -2 -30" stroke="#1e1b1b" stroke-width="2.5"/>
    <path d="M 2 -30 L 10 -32" stroke="#1e1b1b" stroke-width="2.5"/>
    <ellipse cx="0" cy="0" rx="4" ry="3" fill="#1e1b1b"/>
    <path d="M -3 6 Q 0 8 3 6" stroke="#1e1b1b" stroke-width="2" fill="none"/>
  </g>

  <g transform="translate(360 740)" data-formalist="present">
    <ellipse cx="0" cy="80" rx="90" ry="18" fill="#0d1117" opacity="0.5"/>
    <path d="M -36 30 L -36 75 L 36 75 L 36 30 Z" fill="#64748b"/>
    <path d="M -36 30 Q -42 10 -28 5 L 28 5 Q 42 10 36 30 Z" fill="#1e293b"/>
    <circle cx="0" cy="-15" r="22" fill="#d4b896"/>
    <path d="M -22 -25 Q -22 -45 0 -50 Q 22 -45 22 -25 L 22 -15 L -22 -15 Z" fill="#e5e5e5"/>
    <circle cx="-9" cy="-15" r="5" fill="none" stroke="#1e293b" stroke-width="1.5"/>
    <circle cx="9" cy="-15" r="5" fill="none" stroke="#1e293b" stroke-width="1.5"/>
    <line x1="-4" y1="-15" x2="4" y2="-15" stroke="#1e293b" stroke-width="2.5"/>
    <path d="M -7 -2 Q 0 2 7 -2" stroke="#1e293b" stroke-width="2" fill="none"/>
  </g>

  <rect x="380" y="200" width="440" height="80" fill="#0d1117" stroke="#22c55e" stroke-width="3" rx="8"/>
  <text x="600" y="232" font-size="24" fill="#22c55e" text-anchor="middle" font-weight="bold">StateInvariant нарушен</text>
  <text x="600" y="260" font-size="14" fill="#86efac" text-anchor="middle">state одновременно 'confirming' И 'closed'</text>

  <text x="600" y="80" font-size="42" fill="#22c55e" text-anchor="middle" font-weight="bold">TLC Находит Баг</text>
  <text x="600" y="115" font-size="16" fill="#f59e0b" text-anchor="middle" font-style="italic">«TLC: 14 сгенерировано, 12 различных, 0 сожалений.»</text>

  <rect x="100" y="800" width="1000" height="50" fill="#111827" stroke="#1e293b" stroke-width="2" rx="6" opacity="0.85"/>
  <text x="600" y="832" font-size="20" fill="#cbd5e1" text-anchor="middle">Пятница. 14 сгенерировано. 12 различных. Один баг. Модель была права.</text>
</svg>