<svg xmlns="http://www.w3.org/2000/svg" width="1000" height="700" viewBox="0 0 1000 700" font-family="ui-monospace, 'SF Mono', Menlo, Consolas, monospace">
  <defs>
    <radialGradient id="dawnGlow4" cx="50%" cy="0%" r="80%">
      <stop offset="0%" stop-color="#1e293b" stop-opacity="0.6"/>
      <stop offset="100%" stop-color="#0d1117" stop-opacity="0"/>
    </radialGradient>
  </defs>

  <rect fill="#0d1117" width="1000" height="700"/>
  <rect fill="url(#dawnGlow4)" width="1000" height="700"/>

  <g stroke="#22c55e" stroke-width="1" opacity="0.7" fill="none">
    <circle cx="100" cy="60" r="6" fill="#22c55e" opacity="0.95"/>
    <text x="100" y="48" font-size="10" fill="#86efac" text-anchor="middle">closed</text>
    <circle cx="220" cy="80" r="6" fill="#22c55e" opacity="0.95"/>
    <text x="220" y="68" font-size="10" fill="#86efac" text-anchor="middle">opening</text>
    <circle cx="340" cy="50" r="6" fill="#22c55e" opacity="0.95"/>
    <text x="340" y="38" font-size="10" fill="#86efac" text-anchor="middle">open</text>
    <circle cx="500" cy="70" r="6" fill="#22c55e" opacity="0.95"/>
    <text x="500" y="58" font-size="10" fill="#86efac" text-anchor="middle">conf</text>
    <circle cx="640" cy="100" r="6" fill="#22c55e" opacity="0.95"/>
    <text x="640" y="88" font-size="10" fill="#86efac" text-anchor="middle">settle</text>
    <circle cx="780" cy="60" r="6" fill="#22c55e" opacity="0.95"/>
    <text x="780" y="48" font-size="10" fill="#86efac" text-anchor="middle">close</text>
    <circle cx="920" cy="90" r="6" fill="#22c55e" opacity="0.95"/>
    <text x="920" y="78" font-size="10" fill="#86efac" text-anchor="middle">verified</text>
    <circle cx="450" cy="180" r="6" fill="#22c55e" opacity="0.95"/>
    <text x="450" y="170" font-size="10" fill="#86efac" text-anchor="middle">confirming</text>
    <circle cx="600" cy="220" r="6" fill="#22c55e" opacity="0.95"/>
    <text x="600" y="208" font-size="10" fill="#86efac" text-anchor="middle">cancel</text>
    <circle cx="160" cy="160" r="6" fill="#22c55e" opacity="0.95"/>
    <circle cx="820" cy="200" r="6" fill="#22c55e" opacity="0.95"/>
    <line x1="100" y1="60" x2="220" y2="80"/>
    <line x1="220" y1="80" x2="340" y2="50"/>
    <line x1="340" y1="50" x2="500" y2="70"/>
    <line x1="500" y1="70" x2="640" y2="100"/>
    <line x1="640" y1="100" x2="780" y2="60"/>
    <line x1="780" y1="60" x2="920" y2="90"/>
    <line x1="340" y1="50" x2="450" y2="180"/>
    <line x1="450" y1="180" x2="600" y2="220"/>
    <line x1="600" y1="220" x2="640" y2="100"/>
    <line x1="160" y1="160" x2="340" y2="50"/>
    <line x1="820" y1="200" x2="780" y2="60"/>
    <line x1="450" y1="180" x2="820" y2="200"/>
  </g>

  <g>
    <g transform="translate(100 360)">
      <circle r="28" fill="#e8c0a0"/>
      <path d="M -28 -10 Q -28 -36 0 -42 Q 28 -36 28 -10 L 28 0 L -28 0 Z" fill="#1e1b1b"/>
      <ellipse cx="-9" cy="-2" rx="2.5" ry="3" fill="#0d0807"/>
      <ellipse cx="9" cy="-2" rx="2.5" ry="3" fill="#0d0807"/>
      <path d="M -9 8 Q 0 14 9 8" stroke="#0d0807" stroke-width="2" fill="none"/>
      <rect x="-34" y="22" width="68" height="58" fill="#fbbf24" rx="6"/>
      <text y="58" font-size="11" fill="#0d1117" text-anchor="middle">ЮЗЕР_1</text>
      <g transform="translate(0 100)">
        <circle r="14" fill="none" stroke="#22c55e" stroke-width="3"/>
        <path d="M -5 0 L 0 5 L 6 -5" stroke="#22c55e" stroke-width="3" fill="none"/>
      </g>
    </g>

    <g transform="translate(280 380)">
      <circle r="28" fill="#c8a882"/>
      <path d="M -28 -8 Q -28 -34 -8 -40 Q 0 -42 0 -46 Q 18 -42 28 -28 L 28 2 L -28 2 Z" fill="#a87149"/>
      <ellipse cx="-9" cy="0" rx="2.5" ry="3" fill="#0d0807"/>
      <ellipse cx="9" cy="0" rx="2.5" ry="3" fill="#0d0807"/>
      <path d="M -9 12 Q 0 18 9 12" stroke="#0d0807" stroke-width="2" fill="none"/>
      <rect x="-34" y="22" width="68" height="58" fill="#059669" rx="6"/>
      <text y="58" font-size="11" fill="#0d1117" text-anchor="middle">ЮЗЕР_2</text>
      <g transform="translate(0 100)">
        <circle r="14" fill="none" stroke="#22c55e" stroke-width="3"/>
        <path d="M -5 0 L 0 5 L 6 -5" stroke="#22c55e" stroke-width="3" fill="none"/>
      </g>
    </g>

    <g transform="translate(460 360)">
      <circle r="28" fill="#a37862"/>
      <path d="M -28 -12 Q -28 -38 0 -44 Q 28 -38 28 -12 L 28 -2 L -28 -2 Z" fill="#0d0d0d"/>
      <ellipse cx="-9" cy="-4" rx="2.5" ry="3" fill="#0d0807"/>
      <ellipse cx="9" cy="-4" rx="2.5" ry="3" fill="#0d0807"/>
      <path d="M -9 8 Q 0 14 9 8" stroke="#0d0807" stroke-width="2" fill="none"/>
      <rect x="-34" y="22" width="68" height="58" fill="#dc2626" rx="6"/>
      <text y="58" font-size="11" fill="#0d1117" text-anchor="middle">ЮЗЕР_3</text>
      <g transform="translate(0 100)">
        <circle r="14" fill="none" stroke="#22c55e" stroke-width="3"/>
        <path d="M -5 0 L 0 5 L 6 -5" stroke="#22c55e" stroke-width="3" fill="none"/>
      </g>
    </g>

    <g transform="translate(640 380)">
      <circle r="28" fill="#d4b896"/>
      <path d="M -28 -10 Q -28 -36 0 -42 Q 28 -36 28 -10 L 28 0 L -28 0 Z" fill="#bf6f3d"/>
      <ellipse cx="-9" cy="-2" rx="2.5" ry="3" fill="#0d0807"/>
      <ellipse cx="9" cy="-2" rx="2.5" ry="3" fill="#0d0807"/>
      <path d="M -9 8 Q 0 14 9 8" stroke="#0d0807" stroke-width="2" fill="none"/>
      <rect x="-34" y="22" width="68" height="58" fill="#7c3aed" rx="6"/>
      <text y="58" font-size="11" fill="#0d1117" text-anchor="middle">ЮЗЕР_4</text>
      <g transform="translate(0 100)">
        <circle r="14" fill="none" stroke="#22c55e" stroke-width="3"/>
        <path d="M -5 0 L 0 5 L 6 -5" stroke="#22c55e" stroke-width="3" fill="none"/>
      </g>
    </g>

    <g transform="translate(820 360)">
      <circle r="28" fill="#e8c0a0"/>
      <path d="M -28 -8 Q -28 -36 0 -40 Q 28 -36 28 -8 L 28 2 L -28 2 Z" fill="#3b2a1f"/>
      <ellipse cx="-9" cy="0" rx="2.5" ry="3" fill="#0d0807"/>
      <ellipse cx="9" cy="0" rx="2.5" ry="3" fill="#0d0807"/>
      <path d="M -9 10 Q 0 16 9 10" stroke="#0d0807" stroke-width="2" fill="none"/>
      <rect x="-34" y="22" width="68" height="58" fill="#0ea5e9" rx="6"/>
      <text y="58" font-size="11" fill="#0d1117" text-anchor="middle">ЮЗЕР_5</text>
      <g transform="translate(0 100)">
        <circle r="14" fill="none" stroke="#22c55e" stroke-width="3"/>
        <path d="M -5 0 L 0 5 L 6 -5" stroke="#22c55e" stroke-width="3" fill="none"/>
      </g>
    </g>

    <g transform="translate(900 480)">
      <text y="0" font-size="9" fill="#86efac" text-anchor="middle">проверено ✓</text>
      <text y="11" font-size="9" fill="#86efac" text-anchor="middle">проверено ✓</text>
    </g>
  </g>

  <line x1="0" y1="540" x2="1000" y2="540" stroke="#1e293b" stroke-width="2"/>

  <g transform="translate(220 640)" data-maya="present">
    <ellipse cx="0" cy="40" rx="60" ry="12" fill="#0d1117" opacity="0.6"/>
    <path d="M -26 0 L -26 35 L 26 35 L 26 0 Z" fill="#475569"/>
    <path d="M -26 0 Q -30 -10 -18 -14 L 18 -14 Q 30 -10 26 0 Z" fill="#1e293b"/>
    <circle cx="0" cy="-22" r="16" fill="#c8a882"/>
    <path d="M -16 -28 Q -16 -42 0 -45 Q 16 -42 16 -28 L 16 -22 L -16 -22 Z" fill="#1e1b1b"/>
    <ellipse cx="-6" cy="-22" rx="2" ry="2.5" fill="#0d0807"/>
    <ellipse cx="6" cy="-22" rx="2" ry="2.5" fill="#0d0807"/>
    <path d="M -6 -16 Q 0 -12 6 -16" stroke="#0d0807" stroke-width="1.5" fill="none"/>
  </g>

  <g transform="translate(340 660)" data-formalist="present">
    <ellipse cx="0" cy="30" rx="50" ry="10" fill="#0d1117" opacity="0.5"/>
    <path d="M -20 0 L -20 25 L 20 25 L 20 0 Z" fill="#64748b"/>
    <circle cx="0" cy="-15" r="13" fill="#d4b896"/>
    <path d="M -13 -22 Q -13 -34 0 -36 Q 13 -34 13 -22 L 13 -15 L -13 -15 Z" fill="#e5e5e5"/>
    <circle cx="-5" cy="-15" r="3" fill="none" stroke="#1e293b" stroke-width="1"/>
    <circle cx="5" cy="-15" r="3" fill="none" stroke="#1e293b" stroke-width="1"/>
  </g>

  <g transform="translate(720 620)">
    <rect x="-140" y="-40" width="280" height="80" fill="#0d1117" stroke="#22c55e" stroke-width="2" rx="8" opacity="0.85"/>
    <text x="0" y="-12" font-size="22" fill="#22c55e" text-anchor="middle" font-weight="bold">3 месяца. Ноль инцидентов.</text>
    <text x="0" y="14" font-size="14" fill="#cbd5e1" text-anchor="middle">12 фич. 47 пакетов. Спокойно.</text>
    <text x="0" y="32" font-size="11" fill="#86efac" text-anchor="middle" font-style="italic">// да, серьёзно</text>
  </g>

  <text x="500" y="50" font-size="40" fill="#22c55e" text-anchor="middle" font-weight="bold">Мир Стал Лучше</text>
</svg>